<svg xmlns="http://www.w3.org/2000/svg" width="840" height="600" viewBox="0 0 840 600">
<defs>
<style>
svg{--text:#e6edf3;--muted:#8b949e;--dim:#656d76;--grid:rgba(139,148,158,0.15);--accent:#58a6ff;--accent-fill:rgba(88,166,255,0.12);--matcha:#3fb950;--matcha-fill:rgba(63,185,80,0.10);--sora:#58a6ff;--fuji:#bc8cff}
@media(prefers-color-scheme:light){svg{--text:#24292f;--muted:#656d76;--dim:#8b949e;--grid:rgba(101,109,118,0.15);--accent:#0969da;--accent-fill:rgba(9,105,218,0.10);--matcha:#1a7f37;--matcha-fill:rgba(26,127,55,0.08);--sora:#0969da;--fuji:#8250df}}
text{font-family:-apple-system,BlinkMacSystemFont,"Segoe UI",Helvetica,Arial,sans-serif}
</style>
</defs>
<text x="26" y="20" style="fill:var(--accent);font-size:9px;font-weight:700;letter-spacing:1.5px">ACTIVITY</text>
<text x="310" y="20" style="fill:var(--accent);font-size:9px;font-weight:700;letter-spacing:1.5px">MONTHLY CONTRIBUTIONS</text>
<text x="26" y="294" style="fill:var(--accent);font-size:9px;font-weight:700;letter-spacing:1.5px">LANGUAGES</text>
<line x1="26" y1="276" x2="812" y2="276" stroke="var(--grid)" stroke-width="0.5"/>
<g>
<polygon points="148.0,135.0 169.9,150.9 161.5,176.6 134.5,176.6 126.1,150.9" fill="none" stroke="var(--grid)" stroke-width="0.7"/>
<polygon points="148.0,112.0 191.7,143.8 175.0,195.2 121.0,195.2 104.3,143.8" fill="none" stroke="var(--grid)" stroke-width="0.7"/>
<polygon points="148.0,89.0 213.6,136.7 188.6,213.8 107.4,213.8 82.4,136.7" fill="none" stroke="var(--grid)" stroke-width="0.7"/>
<polygon points="148.0,66.0 235.5,129.6 202.1,232.4 93.9,232.4 60.5,129.6" fill="none" stroke="var(--grid)" stroke-width="0.7"/>
<line x1="148" y1="158" x2="148.0" y2="66.0" stroke="var(--grid)" stroke-width="0.7"/>
<line x1="148" y1="158" x2="235.5" y2="129.6" stroke="var(--grid)" stroke-width="0.7"/>
<line x1="148" y1="158" x2="202.1" y2="232.4" stroke="var(--grid)" stroke-width="0.7"/>
<line x1="148" y1="158" x2="93.9" y2="232.4" stroke="var(--grid)" stroke-width="0.7"/>
<line x1="148" y1="158" x2="60.5" y2="129.6" stroke="var(--grid)" stroke-width="0.7"/>
<polygon points="148.0,73.4 208.4,138.4 178.2,199.6 117.0,200.6 92.1,139.8" fill="var(--accent-fill)" stroke="var(--accent)" stroke-width="1.5" stroke-linejoin="round"/>
<circle cx="148.0" cy="73.4" r="3" fill="var(--accent)"/>
<circle cx="208.4" cy="138.4" r="3" fill="var(--accent)"/>
<circle cx="178.2" cy="199.6" r="3" fill="var(--accent)"/>
<circle cx="117.0" cy="200.6" r="3" fill="var(--accent)"/>
<circle cx="92.1" cy="139.8" r="3" fill="var(--accent)"/>
<text x="148.0" y="36.0" text-anchor="middle" style="fill:var(--muted);font-size:10px">Commits</text>
<text x="148.0" y="49.0" text-anchor="middle" style="fill:var(--text);font-size:11px;font-weight:600">4,785</text>
<text x="258.8" y="125.2" text-anchor="start" style="fill:var(--muted);font-size:10px">PRs</text>
<text x="258.8" y="138.2" text-anchor="start" style="fill:var(--text);font-size:11px;font-weight:600">577</text>
<text x="218.3" y="257.8" text-anchor="start" style="fill:var(--muted);font-size:10px">Reviews</text>
<text x="218.3" y="270.8" text-anchor="start" style="fill:var(--text);font-size:11px;font-weight:600">171</text>
<text x="77.7" y="257.8" text-anchor="end" style="fill:var(--muted);font-size:10px">Issues</text>
<text x="77.7" y="270.8" text-anchor="end" style="fill:var(--text);font-size:11px;font-weight:600">194</text>
<text x="37.2" y="125.2" text-anchor="end" style="fill:var(--muted);font-size:10px">Comments</text>
<text x="37.2" y="138.2" text-anchor="end" style="fill:var(--text);font-size:11px;font-weight:600">359</text>
<text x="151" y="133.0" style="fill:var(--dim);font-size:7px">10</text>
<text x="151" y="110.0" style="fill:var(--dim);font-size:7px">100</text>
<text x="151" y="87.0" style="fill:var(--dim);font-size:7px">1k</text>
</g>
<g>
<line x1="345" y1="222.0" x2="812" y2="222.0" stroke="var(--grid)" stroke-width="0.5"/>
<text x="339" y="225.0" text-anchor="end" style="fill:var(--matcha);font-size:8px">0</text>
<line x1="345" y1="177.5" x2="812" y2="177.5" stroke="var(--grid)" stroke-width="0.5"/>
<text x="339" y="180.5" text-anchor="end" style="fill:var(--matcha);font-size:8px">200</text>
<line x1="345" y1="133.0" x2="812" y2="133.0" stroke="var(--grid)" stroke-width="0.5"/>
<text x="339" y="136.0" text-anchor="end" style="fill:var(--matcha);font-size:8px">400</text>
<line x1="345" y1="88.5" x2="812" y2="88.5" stroke="var(--grid)" stroke-width="0.5"/>
<text x="339" y="91.5" text-anchor="end" style="fill:var(--matcha);font-size:8px">600</text>
<line x1="345" y1="44.0" x2="812" y2="44.0" stroke="var(--grid)" stroke-width="0.5"/>
<text x="339" y="47.0" text-anchor="end" style="fill:var(--matcha);font-size:8px">800</text>
<text x="817" y="225.0" text-anchor="start" style="fill:var(--sora);font-size:8px">0</text>
<text x="817" y="136.0" text-anchor="start" style="fill:var(--sora);font-size:8px">20</text>
<text x="817" y="47.0" text-anchor="start" style="fill:var(--sora);font-size:8px">40</text>
<path d="M345.0,221.3 C346.5,221.0 354.7,218.9 357.6,218.4 C360.6,218.0 367.3,218.0 370.2,217.6 C373.2,217.1 379.9,214.3 382.9,214.7 C385.8,215.0 392.5,221.4 395.5,220.7 C398.4,219.9 405.2,209.6 408.1,208.4 C411.1,207.3 417.8,209.9 420.7,210.7 C423.7,211.4 430.4,214.6 433.4,214.7 C436.3,214.7 443.0,211.2 446.0,211.1 C448.9,211.0 455.6,214.7 458.6,213.8 C461.5,212.9 468.3,202.6 471.2,203.3 C474.2,204.0 480.9,219.1 483.8,220.0 C486.8,220.9 493.5,211.0 496.5,210.7 C499.4,210.3 506.1,216.4 509.1,216.9 C512.0,217.3 518.8,215.4 521.7,214.7 C524.6,213.9 531.4,213.5 534.3,210.7 C537.3,207.8 544.0,192.8 546.9,190.6 C549.9,188.5 556.6,191.6 559.6,192.4 C562.5,193.2 569.2,197.4 572.2,197.7 C575.1,198.1 581.9,195.5 584.8,195.1 C587.8,194.7 594.5,194.4 597.4,194.2 C600.4,194.0 607.1,193.9 610.1,193.5 C613.0,193.2 619.7,190.0 622.7,191.1 C625.6,192.1 632.4,201.9 635.3,202.6 C638.2,203.4 645.0,199.0 647.9,197.5 C650.9,196.1 657.6,193.2 660.5,190.2 C663.5,187.1 670.2,170.6 673.2,171.3 C676.1,172.0 682.8,193.7 685.8,196.2 C688.7,198.7 695.5,193.4 698.4,192.9 C701.4,192.3 708.1,192.5 711.0,191.3 C714.0,190.1 720.7,183.6 723.6,182.8 C726.6,182.1 733.3,195.1 736.3,185.1 C739.2,175.1 745.9,97.0 748.9,97.2 C751.8,97.4 758.6,188.8 761.5,186.8 C764.5,184.9 771.2,89.0 774.1,80.3 C777.1,71.5 783.8,101.1 786.8,111.9 C789.7,122.7 796.4,165.8 799.4,172.8 C802.3,179.8 810.5,171.8 812.0,171.7 L812,222 L345,222 Z" fill="var(--matcha-fill)"/>
<path d="M345.0,221.3 C346.5,221.0 354.7,218.9 357.6,218.4 C360.6,218.0 367.3,218.0 370.2,217.6 C373.2,217.1 379.9,214.3 382.9,214.7 C385.8,215.0 392.5,221.4 395.5,220.7 C398.4,219.9 405.2,209.6 408.1,208.4 C411.1,207.3 417.8,209.9 420.7,210.7 C423.7,211.4 430.4,214.6 433.4,214.7 C436.3,214.7 443.0,211.2 446.0,211.1 C448.9,211.0 455.6,214.7 458.6,213.8 C461.5,212.9 468.3,202.6 471.2,203.3 C474.2,204.0 480.9,219.1 483.8,220.0 C486.8,220.9 493.5,211.0 496.5,210.7 C499.4,210.3 506.1,216.4 509.1,216.9 C512.0,217.3 518.8,215.4 521.7,214.7 C524.6,213.9 531.4,213.5 534.3,210.7 C537.3,207.8 544.0,192.8 546.9,190.6 C549.9,188.5 556.6,191.6 559.6,192.4 C562.5,193.2 569.2,197.4 572.2,197.7 C575.1,198.1 581.9,195.5 584.8,195.1 C587.8,194.7 594.5,194.4 597.4,194.2 C600.4,194.0 607.1,193.9 610.1,193.5 C613.0,193.2 619.7,190.0 622.7,191.1 C625.6,192.1 632.4,201.9 635.3,202.6 C638.2,203.4 645.0,199.0 647.9,197.5 C650.9,196.1 657.6,193.2 660.5,190.2 C663.5,187.1 670.2,170.6 673.2,171.3 C676.1,172.0 682.8,193.7 685.8,196.2 C688.7,198.7 695.5,193.4 698.4,192.9 C701.4,192.3 708.1,192.5 711.0,191.3 C714.0,190.1 720.7,183.6 723.6,182.8 C726.6,182.1 733.3,195.1 736.3,185.1 C739.2,175.1 745.9,97.0 748.9,97.2 C751.8,97.4 758.6,188.8 761.5,186.8 C764.5,184.9 771.2,89.0 774.1,80.3 C777.1,71.5 783.8,101.1 786.8,111.9 C789.7,122.7 796.4,165.8 799.4,172.8 C802.3,179.8 810.5,171.8 812.0,171.7" fill="none" stroke="var(--matcha)" stroke-width="1.5"/>
<path d="M345.0,222.0 C346.5,222.0 354.7,222.0 357.6,222.0 C360.6,222.0 367.3,222.0 370.2,222.0 C373.2,222.0 379.9,222.0 382.9,222.0 C385.8,222.0 392.5,222.5 395.5,222.0 C398.4,221.5 405.2,218.1 408.1,217.6 C411.1,217.0 417.8,217.0 420.7,217.6 C423.7,218.1 430.4,222.0 433.4,222.0 C436.3,222.0 443.0,217.6 446.0,217.6 C448.9,217.6 455.6,222.0 458.6,222.0 C461.5,222.0 468.3,217.6 471.2,217.6 C474.2,217.6 480.9,221.5 483.8,222.0 C486.8,222.5 493.5,222.0 496.5,222.0 C499.4,222.0 506.1,222.0 509.1,222.0 C512.0,222.0 518.8,222.0 521.7,222.0 C524.6,222.0 531.4,222.5 534.3,222.0 C537.3,221.5 544.0,218.1 546.9,217.6 C549.9,217.0 556.6,217.6 559.6,217.6 C562.5,217.6 569.2,217.6 572.2,217.6 C575.1,217.6 581.9,217.6 584.8,217.6 C587.8,217.6 594.5,217.6 597.4,217.6 C600.4,217.6 607.1,217.6 610.1,217.6 C613.0,217.6 619.7,217.6 622.7,217.6 C625.6,217.6 632.4,218.6 635.3,217.6 C638.2,216.5 645.0,211.2 647.9,208.7 C650.9,206.1 657.6,198.9 660.5,195.3 C663.5,191.7 670.2,177.0 673.2,177.5 C676.1,178.0 682.8,197.7 685.8,199.8 C688.7,201.8 695.5,195.8 698.4,195.3 C701.4,194.8 708.1,196.3 711.0,195.3 C714.0,194.3 720.7,186.9 723.6,186.4 C726.6,185.9 733.3,199.7 736.3,190.8 C739.2,182.0 745.9,110.8 748.9,110.8 C751.8,110.8 758.6,192.9 761.5,190.8 C764.5,188.8 771.2,100.7 774.1,93.0 C777.1,85.2 783.8,114.2 786.8,124.1 C789.7,134.0 796.4,171.3 799.4,177.5 C802.3,183.7 810.5,177.5 812.0,177.5" fill="none" stroke="var(--sora)" stroke-width="1.5" stroke-dasharray="4,2"/>
<path d="M345.0,222.0 C346.5,222.0 354.7,222.0 357.6,222.0 C360.6,222.0 367.3,222.0 370.2,222.0 C373.2,222.0 379.9,222.0 382.9,222.0 C385.8,222.0 392.5,222.0 395.5,222.0 C398.4,222.0 405.2,222.0 408.1,222.0 C411.1,222.0 417.8,222.0 420.7,222.0 C423.7,222.0 430.4,222.0 433.4,222.0 C436.3,222.0 443.0,222.0 446.0,222.0 C448.9,222.0 455.6,222.0 458.6,222.0 C461.5,222.0 468.3,222.0 471.2,222.0 C474.2,222.0 480.9,222.0 483.8,222.0 C486.8,222.0 493.5,222.0 496.5,222.0 C499.4,222.0 506.1,222.0 509.1,222.0 C512.0,222.0 518.8,222.0 521.7,222.0 C524.6,222.0 531.4,222.0 534.3,222.0 C537.3,222.0 544.0,222.0 546.9,222.0 C549.9,222.0 556.6,222.0 559.6,222.0 C562.5,222.0 569.2,222.0 572.2,222.0 C575.1,222.0 581.9,222.0 584.8,222.0 C587.8,222.0 594.5,222.0 597.4,222.0 C600.4,222.0 607.1,222.0 610.1,222.0 C613.0,222.0 619.7,222.0 622.7,222.0 C625.6,222.0 632.4,222.0 635.3,222.0 C638.2,222.0 645.0,222.5 647.9,222.0 C650.9,221.5 657.6,218.1 660.5,217.6 C663.5,217.0 670.2,217.6 673.2,217.6 C676.1,217.6 682.8,217.6 685.8,217.6 C688.7,217.6 695.5,217.6 698.4,217.6 C701.4,217.6 708.1,217.6 711.0,217.6 C714.0,217.6 720.7,217.6 723.6,217.6 C726.6,217.6 733.3,218.6 736.3,217.6 C739.2,216.5 745.9,208.7 748.9,208.7 C751.8,208.7 758.6,217.6 761.5,217.6 C764.5,217.6 771.2,209.2 774.1,208.7 C777.1,208.1 783.8,212.1 786.8,213.1 C789.7,214.1 796.4,217.0 799.4,217.6 C802.3,218.1 810.5,217.6 812.0,217.6" fill="none" stroke="var(--fuji)" stroke-width="1.5" stroke-dasharray="2,2"/>
<text x="345.0" y="236" text-anchor="middle" style="fill:var(--muted);font-size:8px">23-01</text>
<text x="420.7" y="236" text-anchor="middle" style="fill:var(--muted);font-size:8px">23-07</text>
<text x="496.5" y="236" text-anchor="middle" style="fill:var(--muted);font-size:8px">24-01</text>
<text x="572.2" y="236" text-anchor="middle" style="fill:var(--muted);font-size:8px">24-07</text>
<text x="647.9" y="236" text-anchor="middle" style="fill:var(--muted);font-size:8px">25-01</text>
<text x="723.6" y="236" text-anchor="middle" style="fill:var(--muted);font-size:8px">25-07</text>
<text x="799.4" y="236" text-anchor="middle" style="fill:var(--muted);font-size:8px">26-01</text>
<text x="337" y="38" text-anchor="end" style="fill:var(--matcha);font-size:8px">Commits</text>
<text x="817" y="38" text-anchor="start" style="fill:var(--sora);font-size:8px">PRs / Reviews</text>
<line x1="345" y1="252" x2="359" y2="252" stroke="var(--matcha)" stroke-width="2"/><text x="363" y="255" style="fill:var(--muted);font-size:9px">Commits</text>
<line x1="425" y1="252" x2="439" y2="252" stroke="var(--sora)" stroke-width="1.5" stroke-dasharray="4,2"/><text x="443" y="255" style="fill:var(--muted);font-size:9px">PRs</text>
<line x1="473" y1="252" x2="487" y2="252" stroke="var(--fuji)" stroke-width="1.5" stroke-dasharray="2,2"/><text x="491" y="255" style="fill:var(--muted);font-size:9px">Reviews</text>
</g>
<g>
<clipPath id="bc"><rect x="26" y="306" width="788" height="6" rx="3"/></clipPath>
<g clip-path="url(#bc)">
<rect x="26.0" y="306" width="336.3" height="6" fill="#3572A5"/>
<rect x="362.3" y="306" width="175.2" height="6" fill="#f1e05a"/>
<rect x="537.6" y="306" width="99.8" height="6" fill="#00ADD8"/>
<rect x="637.4" y="306" width="70.1" height="6" fill="#DA5B0B"/>
<rect x="707.5" y="306" width="46.4" height="6" fill="#ffcc33"/>
<rect x="753.9" y="306" width="42.5" height="6" fill="#3178c6"/>
<rect x="796.5" y="306" width="17.5" height="6" fill="#701516"/>
</g>
<circle cx="26" cy="322" r="3" fill="#3572A5"/>
<text x="33" y="325" style="fill:var(--muted);font-size:8px">Python 42.7%</text>
<circle cx="109.19999999999999" cy="322" r="3" fill="#f1e05a"/>
<text x="116.19999999999999" y="325" style="fill:var(--muted);font-size:8px">JavaScript 22.2%</text>
<circle cx="214.79999999999998" cy="322" r="3" fill="#00ADD8"/>
<text x="221.79999999999998" y="325" style="fill:var(--muted);font-size:8px">Go 12.7%</text>
<circle cx="275.59999999999997" cy="322" r="3" fill="#DA5B0B"/>
<text x="282.59999999999997" y="325" style="fill:var(--muted);font-size:8px">Jupyter Notebook 8.9%</text>
<circle cx="409.19999999999993" cy="322" r="3" fill="#ffcc33"/>
<text x="416.19999999999993" y="325" style="fill:var(--muted);font-size:8px">Fluent 5.9%</text>
<circle cx="486.79999999999995" cy="322" r="3" fill="#3178c6"/>
<text x="493.79999999999995" y="325" style="fill:var(--muted);font-size:8px">TypeScript 5.4%</text>
<circle cx="586.8" cy="322" r="3" fill="#701516"/>
<text x="593.8" y="325" style="fill:var(--muted);font-size:8px">Ruby 2.2%</text>
</g>
<g>
<line x1="56" y1="438.0" x2="812" y2="438.0" stroke="var(--grid)" stroke-width="0.5"/>
<text x="50" y="441.0" text-anchor="end" style="fill:var(--dim);font-size:7px">0</text>
<line x1="56" y1="405.3" x2="812" y2="405.3" stroke="var(--grid)" stroke-width="0.5"/>
<text x="50" y="408.3" text-anchor="end" style="fill:var(--dim);font-size:7px">167</text>
<line x1="56" y1="372.7" x2="812" y2="372.7" stroke="var(--grid)" stroke-width="0.5"/>
<text x="50" y="375.7" text-anchor="end" style="fill:var(--dim);font-size:7px">333</text>
<line x1="56" y1="340.0" x2="812" y2="340.0" stroke="var(--grid)" stroke-width="0.5"/>
<text x="50" y="343.0" text-anchor="end" style="fill:var(--dim);font-size:7px">500</text>
<path d="M56.0,438.0 C58.4,438.0 71.7,437.7 76.4,437.6 C81.2,437.5 92.1,437.3 96.9,437.2 C101.6,437.1 112.5,437.0 117.3,436.9 C122.1,436.8 133.0,436.6 137.7,436.5 C142.5,436.4 153.4,436.2 158.2,436.1 C162.9,436.0 173.8,435.8 178.6,435.7 C183.4,435.6 194.3,435.4 199.0,435.4 C203.8,435.3 214.7,435.1 219.5,435.0 C224.2,434.9 235.1,434.7 239.9,434.6 C244.7,434.5 255.6,434.3 260.3,434.2 C265.1,434.1 276.0,433.9 280.8,433.8 C285.5,433.7 296.4,434.2 301.2,433.5 C306.0,432.7 316.9,429.0 321.6,427.6 C326.4,426.2 337.3,423.1 342.1,421.7 C346.8,420.3 357.7,417.2 362.5,415.9 C367.3,414.5 378.2,411.3 382.9,410.0 C387.7,408.6 398.6,405.5 403.4,404.1 C408.1,402.7 419.0,399.6 423.8,398.2 C428.6,396.9 439.4,393.7 444.2,392.4 C449.0,391.0 459.9,387.9 464.6,386.5 C469.4,385.1 480.3,382.0 485.1,380.6 C489.8,379.2 500.7,376.1 505.5,374.8 C510.3,373.4 521.2,370.2 525.9,368.9 C530.7,367.5 541.6,363.0 546.4,363.0 C551.1,363.0 562.0,367.6 566.8,369.0 C571.6,370.5 582.5,373.7 587.2,375.1 C592.0,376.5 602.9,379.7 607.7,381.2 C612.4,382.6 623.3,385.8 628.1,387.2 C632.9,388.6 643.8,391.8 648.5,393.3 C653.3,394.7 664.2,397.9 669.0,399.3 C673.7,400.7 684.6,404.0 689.4,405.4 C694.2,406.8 705.1,410.0 709.8,411.4 C714.6,412.8 725.5,416.0 730.3,417.5 C735.0,418.9 745.9,422.1 750.7,423.5 C755.5,424.9 766.4,428.1 771.1,429.6 C775.9,431.0 786.8,434.9 791.6,435.6 C796.3,436.3 809.6,435.6 812.0,435.6" fill="none" stroke="#3178c6" stroke-width="1.5" opacity="0.85"/>
<path d="M56.0,438.0 C58.4,437.9 71.7,437.2 76.4,437.0 C81.2,436.8 92.1,436.2 96.9,436.0 C101.6,435.8 112.5,435.2 117.3,435.0 C122.1,434.8 133.0,434.2 137.7,434.0 C142.5,433.8 153.4,433.2 158.2,433.0 C162.9,432.7 173.8,432.2 178.6,432.0 C183.4,431.7 194.3,431.2 199.0,431.0 C203.8,430.7 214.7,430.2 219.5,430.0 C224.2,429.8 235.1,429.2 239.9,429.0 C244.7,428.8 255.6,428.2 260.3,428.0 C265.1,427.8 276.0,427.2 280.8,427.0 C285.5,426.8 296.4,426.5 301.2,426.0 C306.0,425.5 316.9,423.3 321.6,422.5 C326.4,421.6 337.3,419.8 342.1,418.9 C346.8,418.1 357.7,416.3 362.5,415.4 C367.3,414.6 378.2,412.8 382.9,411.9 C387.7,411.1 398.6,409.2 403.4,408.4 C408.1,407.6 419.0,405.7 423.8,404.9 C428.6,404.1 439.4,402.2 444.2,401.4 C449.0,400.6 459.9,398.7 464.6,397.9 C469.4,397.1 480.3,395.2 485.1,394.4 C489.8,393.6 500.7,391.7 505.5,390.9 C510.3,390.1 521.2,388.2 525.9,387.4 C530.7,386.5 541.6,383.8 546.4,383.8 C551.1,383.9 562.0,387.0 566.8,387.9 C571.6,388.8 582.5,391.0 587.2,391.9 C592.0,392.9 602.9,395.0 607.7,396.0 C612.4,396.9 623.3,399.1 628.1,400.0 C632.9,401.0 643.8,403.1 648.5,404.1 C653.3,405.0 664.2,407.2 669.0,408.1 C673.7,409.1 684.6,411.2 689.4,412.2 C694.2,413.1 705.1,415.3 709.8,416.2 C714.6,417.1 725.5,419.3 730.3,420.2 C735.0,421.2 745.9,423.3 750.7,424.3 C755.5,425.2 766.4,427.4 771.1,428.3 C775.9,429.3 786.8,431.9 791.6,432.4 C796.3,432.8 809.6,432.4 812.0,432.4" fill="none" stroke="#701516" stroke-width="1.5" opacity="0.85"/>
<path d="M56.0,423.1 C58.4,423.1 71.7,423.1 76.4,423.1 C81.2,423.1 92.1,423.2 96.9,423.2 C101.6,423.2 112.5,423.2 117.3,423.2 C122.1,423.2 133.0,423.2 137.7,423.2 C142.5,423.2 153.4,423.2 158.2,423.2 C162.9,423.2 173.8,423.2 178.6,423.2 C183.4,423.2 194.3,423.2 199.0,423.2 C203.8,423.2 214.7,423.2 219.5,423.2 C224.2,423.2 235.1,423.3 239.9,423.3 C244.7,423.3 255.6,423.3 260.3,423.3 C265.1,423.3 276.0,423.3 280.8,423.3 C285.5,423.3 296.4,423.6 301.2,423.3 C306.0,423.1 316.9,421.7 321.6,421.2 C326.4,420.7 337.3,419.6 342.1,419.1 C346.8,418.7 357.7,417.6 362.5,417.1 C367.3,416.6 378.2,415.5 382.9,415.0 C387.7,414.5 398.6,413.4 403.4,412.9 C408.1,412.4 419.0,411.3 423.8,410.8 C428.6,410.3 439.4,409.2 444.2,408.7 C449.0,408.2 459.9,407.1 464.6,406.6 C469.4,406.2 480.3,405.0 485.1,404.5 C489.8,404.1 500.7,402.9 505.5,402.5 C510.3,402.0 521.2,400.9 525.9,400.4 C530.7,399.9 541.6,398.1 546.4,398.3 C551.1,398.4 562.0,400.8 566.8,401.6 C571.6,402.4 582.5,404.1 587.2,404.9 C592.0,405.7 602.9,407.5 607.7,408.2 C612.4,409.0 623.3,410.8 628.1,411.5 C632.9,412.3 643.8,414.1 648.5,414.8 C653.3,415.6 664.2,417.4 669.0,418.1 C673.7,418.9 684.6,420.7 689.4,421.5 C694.2,422.2 705.1,424.0 709.8,424.8 C714.6,425.5 725.5,427.3 730.3,428.1 C735.0,428.9 745.9,430.6 750.7,431.4 C755.5,432.1 766.4,433.9 771.1,434.7 C775.9,435.5 786.8,437.6 791.6,438.0 C796.3,438.4 809.6,438.0 812.0,438.0" fill="none" stroke="#00ADD8" stroke-width="1.5" opacity="0.85"/>
<path d="M56.0,438.0 C58.4,438.0 71.7,438.0 76.4,438.0 C81.2,438.0 92.1,438.0 96.9,438.0 C101.6,438.0 112.5,438.0 117.3,438.0 C122.1,438.0 133.0,438.0 137.7,438.0 C142.5,438.0 153.4,438.0 158.2,438.0 C162.9,438.0 173.8,438.0 178.6,438.0 C183.4,438.0 194.3,438.0 199.0,438.0 C203.8,438.0 214.7,438.0 219.5,438.0 C224.2,438.0 235.1,438.0 239.9,438.0 C244.7,438.0 255.6,438.0 260.3,438.0 C265.1,438.0 276.0,438.0 280.8,438.0 C285.5,438.0 296.4,438.4 301.2,438.0 C306.0,437.6 316.9,435.2 321.6,434.4 C326.4,433.6 337.3,431.6 342.1,430.8 C346.8,429.9 357.7,428.0 362.5,427.2 C367.3,426.3 378.2,424.4 382.9,423.6 C387.7,422.7 398.6,420.8 403.4,420.0 C408.1,419.1 419.0,417.2 423.8,416.4 C428.6,415.5 439.4,413.6 444.2,412.8 C449.0,411.9 459.9,410.0 464.6,409.1 C469.4,408.3 480.3,406.4 485.1,405.5 C489.8,404.7 500.7,402.8 505.5,401.9 C510.3,401.1 521.2,399.2 525.9,398.3 C530.7,397.5 541.6,394.8 546.4,394.7 C551.1,394.7 562.0,397.1 566.8,397.8 C571.6,398.5 582.5,400.1 587.2,400.9 C592.0,401.6 602.9,403.2 607.7,403.9 C612.4,404.7 623.3,406.3 628.1,407.0 C632.9,407.7 643.8,409.3 648.5,410.1 C653.3,410.8 664.2,412.4 669.0,413.1 C673.7,413.8 684.6,415.5 689.4,416.2 C694.2,416.9 705.1,418.5 709.8,419.3 C714.6,420.0 725.5,421.6 730.3,422.3 C735.0,423.0 745.9,424.7 750.7,425.4 C755.5,426.1 766.4,427.7 771.1,428.5 C775.9,429.2 786.8,431.2 791.6,431.5 C796.3,431.9 809.6,431.5 812.0,431.5" fill="none" stroke="#ff3e00" stroke-width="1.5" opacity="0.85"/>
<path d="M56.0,438.0 C58.4,437.9 71.7,437.3 76.4,437.0 C81.2,436.8 92.1,436.3 96.9,436.1 C101.6,435.9 112.5,435.4 117.3,435.1 C122.1,434.9 133.0,434.4 137.7,434.2 C142.5,434.0 153.4,433.5 158.2,433.2 C162.9,433.0 173.8,432.5 178.6,432.3 C183.4,432.1 194.3,431.6 199.0,431.3 C203.8,431.1 214.7,430.6 219.5,430.4 C224.2,430.2 235.1,429.6 239.9,429.4 C244.7,429.2 255.6,428.7 260.3,428.5 C265.1,428.3 276.0,427.7 280.8,427.5 C285.5,427.3 296.4,426.6 301.2,426.6 C306.0,426.5 316.9,426.7 321.6,426.7 C326.4,426.8 337.3,426.9 342.1,426.9 C346.8,427.0 357.7,427.1 362.5,427.1 C367.3,427.2 378.2,427.3 382.9,427.3 C387.7,427.3 398.6,427.4 403.4,427.5 C408.1,427.5 419.0,427.6 423.8,427.7 C428.6,427.7 439.4,427.8 444.2,427.8 C449.0,427.9 459.9,428.0 464.6,428.0 C469.4,428.1 480.3,428.2 485.1,428.2 C489.8,428.3 500.7,428.4 505.5,428.4 C510.3,428.5 521.2,428.6 525.9,428.6 C530.7,428.6 541.6,428.7 546.4,428.8 C551.1,428.9 562.0,429.3 566.8,429.4 C571.6,429.6 582.5,429.9 587.2,430.1 C592.0,430.3 602.9,430.6 607.7,430.8 C612.4,430.9 623.3,431.3 628.1,431.4 C632.9,431.6 643.8,432.0 648.5,432.1 C653.3,432.3 664.2,432.6 669.0,432.8 C673.7,432.9 684.6,433.3 689.4,433.5 C694.2,433.6 705.1,434.0 709.8,434.1 C714.6,434.3 725.5,434.6 730.3,434.8 C735.0,434.9 745.9,435.3 750.7,435.5 C755.5,435.6 766.4,436.0 771.1,436.1 C775.9,436.3 786.8,436.7 791.6,436.8 C796.3,436.9 809.6,436.8 812.0,436.8" fill="none" stroke="#f1e05a" stroke-width="1.5" opacity="0.85"/>
<path d="M56.0,434.5 C58.4,434.5 71.7,434.3 76.4,434.3 C81.2,434.2 92.1,434.1 96.9,434.0 C101.6,433.9 112.5,433.8 117.3,433.7 C122.1,433.7 133.0,433.5 137.7,433.5 C142.5,433.4 153.4,433.3 158.2,433.2 C162.9,433.1 173.8,433.0 178.6,432.9 C183.4,432.9 194.3,432.7 199.0,432.6 C203.8,432.6 214.7,432.5 219.5,432.4 C224.2,432.3 235.1,432.2 239.9,432.1 C244.7,432.1 255.6,431.9 260.3,431.9 C265.1,431.8 276.0,431.7 280.8,431.6 C285.5,431.5 296.4,431.3 301.2,431.3 C306.0,431.4 316.9,431.7 321.6,431.8 C326.4,431.9 337.3,432.1 342.1,432.2 C346.8,432.3 357.7,432.6 362.5,432.7 C367.3,432.8 378.2,433.0 382.9,433.1 C387.7,433.2 398.6,433.5 403.4,433.6 C408.1,433.7 419.0,433.9 423.8,434.0 C428.6,434.1 439.4,434.4 444.2,434.5 C449.0,434.6 459.9,434.8 464.6,434.9 C469.4,435.0 480.3,435.3 485.1,435.4 C489.8,435.5 500.7,435.7 505.5,435.8 C510.3,435.9 521.2,436.2 525.9,436.3 C530.7,436.4 541.6,436.7 546.4,436.7 C551.1,436.8 562.0,436.8 566.8,436.8 C571.6,436.9 582.5,436.9 587.2,437.0 C592.0,437.0 602.9,437.0 607.7,437.1 C612.4,437.1 623.3,437.1 628.1,437.2 C632.9,437.2 643.8,437.2 648.5,437.3 C653.3,437.3 664.2,437.3 669.0,437.4 C673.7,437.4 684.6,437.4 689.4,437.5 C694.2,437.5 705.1,437.5 709.8,437.5 C714.6,437.6 725.5,437.6 730.3,437.6 C735.0,437.7 745.9,437.7 750.7,437.7 C755.5,437.8 766.4,437.8 771.1,437.8 C775.9,437.9 786.8,437.9 791.6,437.9 C796.3,438.0 809.6,437.9 812.0,437.9" fill="none" stroke="#3572A5" stroke-width="1.5" opacity="0.85"/>
<text x="56.0" y="452" text-anchor="middle" style="fill:var(--muted);font-size:8px">23-01</text>
<text x="137.7" y="452" text-anchor="middle" style="fill:var(--muted);font-size:8px">23-05</text>
<text x="219.5" y="452" text-anchor="middle" style="fill:var(--muted);font-size:8px">23-09</text>
<text x="301.2" y="452" text-anchor="middle" style="fill:var(--muted);font-size:8px">24-01</text>
<text x="382.9" y="452" text-anchor="middle" style="fill:var(--muted);font-size:8px">24-05</text>
<text x="464.6" y="452" text-anchor="middle" style="fill:var(--muted);font-size:8px">24-09</text>
<text x="546.4" y="452" text-anchor="middle" style="fill:var(--muted);font-size:8px">25-01</text>
<text x="628.1" y="452" text-anchor="middle" style="fill:var(--muted);font-size:8px">25-05</text>
<text x="709.8" y="452" text-anchor="middle" style="fill:var(--muted);font-size:8px">25-09</text>
<text x="791.6" y="452" text-anchor="middle" style="fill:var(--muted);font-size:8px">26-01</text>
<circle cx="56" cy="466" r="3" fill="#3178c6"/>
<text x="63" y="469" style="fill:var(--muted);font-size:9px">TypeScript</text>
<circle cx="138" cy="466" r="3" fill="#701516"/>
<text x="145" y="469" style="fill:var(--muted);font-size:9px">Ruby</text>
<circle cx="184" cy="466" r="3" fill="#00ADD8"/>
<text x="191" y="469" style="fill:var(--muted);font-size:9px">Go</text>
<circle cx="218" cy="466" r="3" fill="#ff3e00"/>
<text x="225" y="469" style="fill:var(--muted);font-size:9px">Svelte</text>
<circle cx="276" cy="466" r="3" fill="#f1e05a"/>
<text x="283" y="469" style="fill:var(--muted);font-size:9px">JavaScript</text>
<circle cx="358" cy="466" r="3" fill="#3572A5"/>
<text x="365" y="469" style="fill:var(--muted);font-size:9px">Python</text>
</g>
<g>
<line x1="26" y1="478" x2="812" y2="478" stroke="var(--grid)" stroke-width="0.5"/>
<text x="26" y="494" style="fill:var(--accent);font-size:9px;font-weight:700;letter-spacing:1.5px">SKILL STACK</text>
<text x="26" y="518" style="fill:var(--dim);font-size:7px;font-weight:700;letter-spacing:1px">LANGUAGES</text>
<circle cx="83" cy="515" r="3" fill="#3178c6"/>
<text x="90" y="518" style="fill:var(--muted);font-size:9px">TypeScript</text>
<circle cx="156" cy="515" r="3" fill="#f1e05a"/>
<text x="163" y="518" style="fill:var(--muted);font-size:9px">JavaScript</text>
<circle cx="229" cy="515" r="3" fill="#00ADD8"/>
<text x="236" y="518" style="fill:var(--muted);font-size:9px">Go</text>
<circle cx="258.8" cy="515" r="3" fill="#3572A5"/>
<text x="265.8" y="518" style="fill:var(--muted);font-size:9px">Python</text>
<circle cx="310.20000000000005" cy="515" r="3" fill="#CC342D"/>
<text x="317.20000000000005" y="518" style="fill:var(--muted);font-size:9px">Ruby</text>
<circle cx="350.80000000000007" cy="515" r="3" fill="#f34b7d"/>
<text x="357.80000000000007" y="518" style="fill:var(--muted);font-size:9px">C++</text>
<circle cx="386.00000000000006" cy="515" r="3" fill="#555"/>
<text x="393.00000000000006" y="518" style="fill:var(--muted);font-size:9px">C</text>
<circle cx="410.40000000000003" cy="515" r="3" fill="#dea584"/>
<text x="417.40000000000003" y="518" style="fill:var(--muted);font-size:9px">Rust</text>
<circle cx="451.00000000000006" cy="515" r="3" fill="#b07219"/>
<text x="458.00000000000006" y="518" style="fill:var(--muted);font-size:9px">Java</text>
<text x="26" y="540" style="fill:var(--dim);font-size:7px;font-weight:700;letter-spacing:1px">FRAMEWORKS</text>
<circle cx="88" cy="537" r="3" fill="#ff3e00"/>
<text x="95" y="540" style="fill:var(--muted);font-size:9px">Svelte</text>
<circle cx="139.4" cy="537" r="3" fill="#41b883"/>
<text x="146.4" y="540" style="fill:var(--muted);font-size:9px">Vue</text>
<circle cx="174.60000000000002" cy="537" r="3" fill="#ffc131"/>
<text x="181.60000000000002" y="540" style="fill:var(--muted);font-size:9px">Tauri</text>
<circle cx="220.60000000000002" cy="537" r="3" fill="#61dafb"/>
<text x="227.60000000000002" y="540" style="fill:var(--muted);font-size:9px">React</text>
<circle cx="266.6" cy="537" r="3" fill="#888"/>
<text x="273.6" y="540" style="fill:var(--muted);font-size:9px">Next.js</text>
<circle cx="323.40000000000003" cy="537" r="3" fill="#cc0000"/>
<text x="330.40000000000003" y="540" style="fill:var(--muted);font-size:9px">Rails</text>
<text x="26" y="562" style="fill:var(--dim);font-size:7px;font-weight:700;letter-spacing:1px">INFRA</text>
<circle cx="63" cy="559" r="3" fill="#2496ed"/>
<text x="70" y="562" style="fill:var(--muted);font-size:9px">Docker</text>
<circle cx="114.4" cy="559" r="3" fill="#ff9900"/>
<text x="121.4" y="562" style="fill:var(--muted);font-size:9px">AWS</text>
<circle cx="149.60000000000002" cy="559" r="3" fill="#7b42bc"/>
<text x="156.60000000000002" y="562" style="fill:var(--muted);font-size:9px">Terraform</text>
<circle cx="217.20000000000002" cy="559" r="3" fill="#fcc624"/>
<text x="224.20000000000002" y="562" style="fill:var(--muted);font-size:9px">Linux</text>
<circle cx="263.20000000000005" cy="559" r="3" fill="#336791"/>
<text x="270.20000000000005" y="562" style="fill:var(--muted);font-size:9px">PostgreSQL</text>
<text x="26" y="584" style="fill:var(--dim);font-size:7px;font-weight:700;letter-spacing:1px">TOOLS</text>
<circle cx="63" cy="581" r="3" fill="#f05032"/>
<text x="70" y="584" style="fill:var(--muted);font-size:9px">Git</text>
<circle cx="98.2" cy="581" r="3" fill="#888"/>
<text x="105.2" y="584" style="fill:var(--muted);font-size:9px">GitHub</text>
<circle cx="149.60000000000002" cy="581" r="3" fill="#007acc"/>
<text x="156.60000000000002" y="584" style="fill:var(--muted);font-size:9px">VS Code</text>
<circle cx="206.40000000000003" cy="581" r="3" fill="#008080"/>
<text x="213.40000000000003" y="584" style="fill:var(--muted);font-size:9px">LaTeX</text>
<circle cx="252.40000000000003" cy="581" r="3" fill="#89e051"/>
<text x="259.40000000000003" y="584" style="fill:var(--muted);font-size:9px">Bash</text>
</g>
</svg>