<svg xmlns="http://www.w3.org/2000/svg" width="480" height="459" viewBox="0 0 480 459">
<defs>
<filter id="glow"><feGaussianBlur stdDeviation="2" result="blur"/><feMerge><feMergeNode in="blur"/><feMergeNode in="SourceGraphic"/></feMerge></filter>
</defs>
<style>text{font-family:-apple-system,BlinkMacSystemFont,'Segoe UI',Helvetica,Arial,sans-serif}</style>


    <text x="24" y="38" fill="#58a6ff" font-size="16" font-weight="700" font-family="-apple-system,BlinkMacSystemFont,'Segoe UI',Helvetica,Arial,sans-serif">soranjiro</text>
    <text x="24" y="58" fill="#8b949e" font-size="11" font-family="-apple-system,BlinkMacSystemFont,'Segoe UI',Helvetica,Arial,sans-serif">Joined GitHub 3 years ago</text>
    <text x="24" y="74" fill="#8b949e" font-size="11" font-family="-apple-system,BlinkMacSystemFont,'Segoe UI',Helvetica,Arial,sans-serif">Followed by 10 users</text>
    <rect x="210" y="22" width="14" height="14" rx="2" fill="#006d32"><animate attributeName="opacity" from="0" to="1" dur="0.3s" begin="0.00s" fill="freeze"/></rect>
    <rect x="228" y="22" width="14" height="14" rx="2" fill="#006d32"><animate attributeName="opacity" from="0" to="1" dur="0.3s" begin="0.08s" fill="freeze"/></rect>
    <rect x="246" y="22" width="14" height="14" rx="2" fill="#006d32"><animate attributeName="opacity" from="0" to="1" dur="0.3s" begin="0.16s" fill="freeze"/></rect>
    <rect x="264" y="22" width="14" height="14" rx="2" fill="#0e4429"><animate attributeName="opacity" from="0" to="1" dur="0.3s" begin="0.24s" fill="freeze"/></rect>
    <rect x="282" y="22" width="14" height="14" rx="2" fill="#0e4429"><animate attributeName="opacity" from="0" to="1" dur="0.3s" begin="0.32s" fill="freeze"/></rect>
    <rect x="300" y="22" width="14" height="14" rx="2" fill="#006d32"><animate attributeName="opacity" from="0" to="1" dur="0.3s" begin="0.40s" fill="freeze"/></rect>
    <rect x="318" y="22" width="14" height="14" rx="2" fill="#26a641"><animate attributeName="opacity" from="0" to="1" dur="0.3s" begin="0.48s" fill="freeze"/></rect>
    <rect x="336" y="22" width="14" height="14" rx="2" fill="#39d353"><animate attributeName="opacity" from="0" to="1" dur="0.3s" begin="0.56s" fill="freeze"/></rect>
    <rect x="354" y="22" width="14" height="14" rx="2" fill="#0e4429"><animate attributeName="opacity" from="0" to="1" dur="0.3s" begin="0.64s" fill="freeze"/></rect>
    <rect x="372" y="22" width="14" height="14" rx="2" fill="#26a641"><animate attributeName="opacity" from="0" to="1" dur="0.3s" begin="0.72s" fill="freeze"/></rect>
    <rect x="390" y="22" width="14" height="14" rx="2" fill="#006d32"><animate attributeName="opacity" from="0" to="1" dur="0.3s" begin="0.80s" fill="freeze"/></rect>
    <rect x="408" y="22" width="14" height="14" rx="2" fill="#006d32"><animate attributeName="opacity" from="0" to="1" dur="0.3s" begin="0.88s" fill="freeze"/></rect>
    <rect x="426" y="22" width="14" height="14" rx="2" fill="#39d353"><animate attributeName="opacity" from="0" to="1" dur="0.3s" begin="0.96s" fill="freeze"/></rect>
    <rect x="444" y="22" width="14" height="14" rx="2" fill="#0e4429"><animate attributeName="opacity" from="0" to="1" dur="0.3s" begin="1.04s" fill="freeze"/></rect>
    <rect x="462" y="22" width="14" height="14" rx="2" fill="#39d353"><animate attributeName="opacity" from="0" to="1" dur="0.3s" begin="1.12s" fill="freeze"/></rect>
    <text x="210" y="54" fill="#8b949e" font-size="10" font-family="-apple-system,BlinkMacSystemFont,'Segoe UI',Helvetica,Arial,sans-serif">Contributed to 20 repositories</text>

    <line x1="24" y1="92" x2="456" y2="92" stroke="#30363d" stroke-width="0.5"/>

    <path d="M10.5 7.75a2.5 2.5 0 11-5 0 2.5 2.5 0 015 0zm1.43.75a4.002 4.002 0 01-7.86 0H.75a.75.75 0 110-1.5h3.32a4.001 4.001 0 017.86 0h3.32a.75.75 0 110 1.5h-3.32z" fill="#3fb950" transform="translate(24,100) scale(0.8750)"/><text x="44" y="112" fill="#3fb950" font-size="12" font-weight="600" font-family="-apple-system,BlinkMacSystemFont,'Segoe UI',Helvetica,Arial,sans-serif">Activity</text>
    <g opacity="0"><animate attributeName="opacity" from="0" to="1" dur="0.5s" begin="0.40s" fill="freeze"/><path d="M10.5 7.75a2.5 2.5 0 11-5 0 2.5 2.5 0 015 0zm1.43.75a4.002 4.002 0 01-7.86 0H.75a.75.75 0 110-1.5h3.32a4.001 4.001 0 017.86 0h3.32a.75.75 0 110 1.5h-3.32z" fill="#8b949e" transform="translate(24,122) scale(0.7500)"/><text x="40" y="132" fill="#8b949e" font-size="11" font-family="-apple-system,BlinkMacSystemFont,'Segoe UI',Helvetica,Arial,sans-serif">5,508 Commits</text></g>
    <g opacity="0"><animate attributeName="opacity" from="0" to="1" dur="0.5s" begin="0.60s" fill="freeze"/><path d="M7.177 3.073L9.573.677A.25.25 0 0110 .854v4.792a.25.25 0 01-.427.177L7.177 3.427a.25.25 0 010-.354zM3.75 2.5a.75.75 0 100 1.5.75.75 0 000-1.5zm-2.25.75a2.25 2.25 0 113 2.122v5.256a2.251 2.251 0 11-1.5 0V5.372A2.25 2.25 0 011.5 3.25zM11 2.5h-1V4h1a1 1 0 011 1v5.628a2.251 2.251 0 101.5 0V5A2.5 2.5 0 0011 2.5zm1 10.25a.75.75 0 111.5 0 .75.75 0 01-1.5 0zM3.75 12a.75.75 0 100 1.5.75.75 0 000-1.5z" fill="#8b949e" transform="translate(24,140) scale(0.7500)"/><text x="40" y="150" fill="#8b949e" font-size="11" font-family="-apple-system,BlinkMacSystemFont,'Segoe UI',Helvetica,Arial,sans-serif">735 Pull requests opened</text></g>
    <g opacity="0"><animate attributeName="opacity" from="0" to="1" dur="0.5s" begin="0.80s" fill="freeze"/><path d="M2.5 1.75a.25.25 0 01.25-.25h8.5a.25.25 0 01.25.25v7.736a.75.75 0 101.5 0V1.75A1.75 1.75 0 0011.25 0h-8.5A1.75 1.75 0 001 1.75v11.5c0 .966.784 1.75 1.75 1.75h3.17a.75.75 0 000-1.5H2.75a.25.25 0 01-.25-.25V1.75zM4.75 4a.75.75 0 000 1.5h4.5a.75.75 0 000-1.5h-4.5zM4 7.75A.75.75 0 014.75 7h2a.75.75 0 010 1.5h-2A.75.75 0 014 7.75zm11.774 3.537a.75.75 0 00-1.048-1.074L10.7 14.145 9.281 12.72a.75.75 0 00-1.062 1.058l1.943 1.95a.75.75 0 001.055.008l4.557-4.45z" fill="#8b949e" transform="translate(24,158) scale(0.7500)"/><text x="40" y="168" fill="#8b949e" font-size="11" font-family="-apple-system,BlinkMacSystemFont,'Segoe UI',Helvetica,Arial,sans-serif">198 Pull requests reviewed</text></g>
    <g opacity="0"><animate attributeName="opacity" from="0" to="1" dur="0.5s" begin="1.00s" fill="freeze"/><path d="M8 9.5a1.5 1.5 0 100-3 1.5 1.5 0 000 3zM8 0a8 8 0 100 16A8 8 0 008 0zM1.5 8a6.5 6.5 0 1113 0 6.5 6.5 0 01-13 0z" fill="#8b949e" transform="translate(24,176) scale(0.7500)"/><text x="40" y="186" fill="#8b949e" font-size="11" font-family="-apple-system,BlinkMacSystemFont,'Segoe UI',Helvetica,Arial,sans-serif">209 Issues opened</text></g>
    <g opacity="0"><animate attributeName="opacity" from="0" to="1" dur="0.5s" begin="1.20s" fill="freeze"/><path d="M1 2.5A2.5 2.5 0 013.5 0h8.75a.75.75 0 01.75.75v3.5a.75.75 0 01-1.5 0V1.5h-8a1 1 0 00-1 1v6.708A2.492 2.492 0 013.5 9h3.25a.75.75 0 010 1.5H3.5a1 1 0 100 2h5.75a.75.75 0 010 1.5H3.5A2.5 2.5 0 011 11.5v-9zm13.23 7.79a.75.75 0 001.06-1.06l-2.505-2.505a.75.75 0 00-1.06 0L9.22 9.229a.75.75 0 001.06 1.061l1.225-1.224v6.184a.75.75 0 001.5 0V9.066l1.224 1.224z" fill="#8b949e" transform="translate(24,194) scale(0.7500)"/><text x="40" y="204" fill="#8b949e" font-size="11" font-family="-apple-system,BlinkMacSystemFont,'Segoe UI',Helvetica,Arial,sans-serif">501 Comments</text></g>

    <path d="M1.75 16A1.75 1.75 0 010 14.25V1.75C0 .784.784 0 1.75 0h8.5C11.216 0 12 .784 12 1.75v12.5c0 .085-.006.168-.018.25h2.268a.25.25 0 00.25-.25V8.285a.25.25 0 00-.111-.208l-1.055-.703a.75.75 0 11.832-1.248l1.055.703c.487.325.779.871.779 1.456v5.965A1.75 1.75 0 0114.25 16h-3.5a.75.75 0 01-.197-.026c-.099.017-.2.026-.303.026h-3a.75.75 0 01-.75-.75V14h-1v1.25a.75.75 0 01-.75.75h-3zM3 3.75A.75.75 0 013.75 3h.5a.75.75 0 010 1.5h-.5A.75.75 0 013 3.75zM3.75 6a.75.75 0 000 1.5h.5a.75.75 0 000-1.5h-.5zM3 9.75A.75.75 0 013.75 9h.5a.75.75 0 010 1.5h-.5A.75.75 0 013 9.75zM7.75 9a.75.75 0 000 1.5h.5a.75.75 0 000-1.5h-.5zM7 6.75A.75.75 0 017.75 6h.5a.75.75 0 010 1.5h-.5A.75.75 0 017 6.75zM7.75 3a.75.75 0 000 1.5h.5a.75.75 0 000-1.5h-.5z" fill="#3fb950" transform="translate(260,100) scale(0.8750)"/><text x="280" y="112" fill="#3fb950" font-size="12" font-weight="600" font-family="-apple-system,BlinkMacSystemFont,'Segoe UI',Helvetica,Arial,sans-serif">Community</text>
    <g opacity="0"><animate attributeName="opacity" from="0" to="1" dur="0.5s" begin="0.50s" fill="freeze"/><path d="M1.75 16A1.75 1.75 0 010 14.25V1.75C0 .784.784 0 1.75 0h8.5C11.216 0 12 .784 12 1.75v12.5c0 .085-.006.168-.018.25h2.268a.25.25 0 00.25-.25V8.285a.25.25 0 00-.111-.208l-1.055-.703a.75.75 0 11.832-1.248l1.055.703c.487.325.779.871.779 1.456v5.965A1.75 1.75 0 0114.25 16h-3.5a.75.75 0 01-.197-.026c-.099.017-.2.026-.303.026h-3a.75.75 0 01-.75-.75V14h-1v1.25a.75.75 0 01-.75.75h-3zM3 3.75A.75.75 0 013.75 3h.5a.75.75 0 010 1.5h-.5A.75.75 0 013 3.75zM3.75 6a.75.75 0 000 1.5h.5a.75.75 0 000-1.5h-.5zM3 9.75A.75.75 0 013.75 9h.5a.75.75 0 010 1.5h-.5A.75.75 0 013 9.75zM7.75 9a.75.75 0 000 1.5h.5a.75.75 0 000-1.5h-.5zM7 6.75A.75.75 0 017.75 6h.5a.75.75 0 010 1.5h-.5A.75.75 0 017 6.75zM7.75 3a.75.75 0 000 1.5h.5a.75.75 0 000-1.5h-.5z" fill="#8b949e" transform="translate(260,122) scale(0.7500)"/><text x="276" y="132" fill="#8b949e" font-size="11" font-family="-apple-system,BlinkMacSystemFont,'Segoe UI',Helvetica,Arial,sans-serif">Member of 6 organizations</text></g>
    <g opacity="0"><animate attributeName="opacity" from="0" to="1" dur="0.5s" begin="0.70s" fill="freeze"/><path d="M8 .25a.75.75 0 01.673.418l1.882 3.815 4.21.612a.75.75 0 01.416 1.279l-3.046 2.97.719 4.192a.75.75 0 01-1.088.791L8 12.347l-3.766 1.98a.75.75 0 01-1.088-.79l.72-4.194L.818 6.374a.75.75 0 01.416-1.28l4.21-.611L7.327.668A.75.75 0 018 .25z" fill="#8b949e" transform="translate(260,140) scale(0.7500)"/><text x="276" y="150" fill="#8b949e" font-size="11" font-family="-apple-system,BlinkMacSystemFont,'Segoe UI',Helvetica,Arial,sans-serif">Starred 12 repositories</text></g>
    <g opacity="0"><animate attributeName="opacity" from="0" to="1" dur="0.5s" begin="0.90s" fill="freeze"/><path d="M7.53 1.282a.5.5 0 01.94 0l1.478 4.007a.5.5 0 00.312.312l4.007 1.478a.5.5 0 010 .94l-4.007 1.478a.5.5 0 00-.312.312L8.47 14.816a.5.5 0 01-.94 0L6.052 10.81a.5.5 0 00-.312-.312L1.733 9.019a.5.5 0 010-.94L5.74 6.601a.5.5 0 00.312-.312z" fill="#8b949e" transform="translate(260,158) scale(0.7500)"/><text x="276" y="168" fill="#8b949e" font-size="11" font-family="-apple-system,BlinkMacSystemFont,'Segoe UI',Helvetica,Arial,sans-serif">1k Copilot requests</text></g>
    <g opacity="0"><animate attributeName="opacity" from="0" to="1" dur="0.5s" begin="1.1s" fill="freeze"/>
      <path d="M1.5 8a6.5 6.5 0 1113 0 6.5 6.5 0 01-13 0zM8 0a8 8 0 100 16A8 8 0 008 0zm.5 4.75a.75.75 0 00-1.5 0v3.5a.75.75 0 00.471.696l2.5 1a.75.75 0 00.557-1.392L8.5 7.742V4.75z" fill="#8b949e" transform="translate(260,176) scale(0.7500)"/><text x="276" y="186" fill="#8b949e" font-size="11" font-family="-apple-system,BlinkMacSystemFont,'Segoe UI',Helvetica,Arial,sans-serif">776-day streak</text>
      <circle cx="367.5" cy="182" r="3" fill="#3fb950"><animate attributeName="opacity" values="1;0.3;1" dur="2s" repeatCount="indefinite"/></circle>
    </g>
    <g opacity="0"><animate attributeName="opacity" from="0" to="1" dur="0.5s" begin="1.30s" fill="freeze"/><path d="M8 .25a.75.75 0 01.673.418l1.882 3.815 4.21.612a.75.75 0 01.416 1.279l-3.046 2.97.719 4.192a.75.75 0 01-1.088.791L8 12.347l-3.766 1.98a.75.75 0 01-1.088-.79l.72-4.194L.818 6.374a.75.75 0 01.416-1.28l4.21-.611L7.327.668A.75.75 0 018 .25z" fill="#8b949e" transform="translate(260,194) scale(0.7500)"/><text x="276" y="204" fill="#8b949e" font-size="11" font-family="-apple-system,BlinkMacSystemFont,'Segoe UI',Helvetica,Arial,sans-serif">Best: 119/day</text></g>

    <line x1="24" y1="218" x2="456" y2="218" stroke="#30363d" stroke-width="0.5"/>

    <path d="M2 2.5A2.5 2.5 0 014.5 0h8.75a.75.75 0 01.75.75v12.5a.75.75 0 01-.75.75h-2.5a.75.75 0 010-1.5h1.75v-2h-8a1 1 0 00-.714 1.7.75.75 0 01-1.072 1.05A2.495 2.495 0 012 11.5v-9zm10.5-1h-8a1 1 0 00-1 1v6.708A2.486 2.486 0 014.5 9h8V1.5zm-3 2a.75.75 0 01.75.75v2a.75.75 0 01-1.5 0v-2a.75.75 0 01.75-.75z" fill="#3fb950" transform="translate(24,228) scale(0.8750)"/><text x="44" y="240" fill="#3fb950" font-size="12" font-weight="600" font-family="-apple-system,BlinkMacSystemFont,'Segoe UI',Helvetica,Arial,sans-serif">79 Repositories</text>
    <text x="24" y="260" fill="#8b949e" font-size="11" font-family="-apple-system,BlinkMacSystemFont,'Segoe UI',Helvetica,Arial,sans-serif">Prefers MIT license</text>
    <text x="24" y="278" fill="#8b949e" font-size="11" font-family="-apple-system,BlinkMacSystemFont,'Segoe UI',Helvetica,Arial,sans-serif">47 Releases</text>

    <text x="260" y="260" fill="#8b949e" font-size="11" font-family="-apple-system,BlinkMacSystemFont,'Segoe UI',Helvetica,Arial,sans-serif">12 Stargazers</text>
    <text x="260" y="278" fill="#8b949e" font-size="11" font-family="-apple-system,BlinkMacSystemFont,'Segoe UI',Helvetica,Arial,sans-serif">6 Forkers</text>
  

    <text x="24" y="296" fill="#8b949e" font-size="9" font-weight="600" letter-spacing="1" font-family="-apple-system,sans-serif">LAST 60 DAYS</text>
    <path d="M24.0,392.6 C24.9,390.7 29.6,376.5 31.3,375.9 C33.0,375.4 36.9,392.0 38.6,387.8 C40.4,383.7 44.3,341.8 46.0,340.2 C47.7,338.5 51.6,370.2 53.3,373.5 C55.0,376.9 58.9,367.7 60.6,368.8 C62.3,369.9 66.2,390.9 67.9,383.1 C69.6,375.3 73.5,311.2 75.3,302.0 C77.0,292.8 80.9,295.2 82.6,304.4 C84.3,313.6 88.2,373.7 89.9,380.7 C91.6,387.6 95.5,369.0 97.2,364.0 C98.9,359.0 102.8,334.4 104.5,337.8 C106.3,341.1 110.2,386.2 111.9,392.6 C113.6,399.0 117.5,392.6 119.2,392.6 C120.9,392.6 124.8,392.6 126.5,392.6 C128.2,392.6 132.1,392.6 133.8,392.6 C135.5,392.6 139.4,392.6 141.2,392.6 C142.9,392.6 146.8,392.6 148.5,392.6 C150.2,392.6 154.1,399.8 155.8,392.6 C157.5,385.4 161.4,330.6 163.1,330.6 C164.8,330.6 168.7,385.4 170.4,392.6 C172.1,399.8 176.1,394.3 177.8,392.6 C179.5,390.9 183.4,383.9 185.1,378.3 C186.8,372.7 190.7,345.8 192.4,344.9 C194.1,344.1 198.0,366.7 199.7,371.2 C201.4,375.6 205.3,382.2 207.1,383.1 C208.8,383.9 212.7,378.6 214.4,378.3 C216.1,378.0 220.0,380.7 221.7,380.7 C223.4,380.7 227.3,379.1 229.0,378.3 C230.7,377.5 234.6,372.4 236.3,373.5 C238.0,374.7 242.0,389.8 243.7,387.8 C245.4,385.9 249.3,356.8 251.0,356.8 C252.7,356.8 256.6,386.7 258.3,387.8 C260.0,389.0 263.9,366.1 265.6,366.4 C267.3,366.7 271.2,392.2 272.9,390.2 C274.7,388.3 278.6,350.2 280.3,349.7 C282.0,349.1 285.9,381.0 287.6,385.5 C289.3,389.9 293.2,387.6 294.9,387.8 C296.6,388.1 300.5,389.5 302.2,387.8 C303.9,386.2 307.9,373.5 309.6,373.5 C311.3,373.5 315.2,391.5 316.9,387.8 C318.6,384.2 322.5,343.9 324.2,342.5 C325.9,341.1 329.8,370.9 331.5,375.9 C333.2,380.9 337.1,387.1 338.8,385.5 C340.6,383.8 344.5,369.7 346.2,361.6 C347.9,353.5 351.8,312.7 353.5,316.3 C355.2,319.9 359.1,383.7 360.8,392.6 C362.5,401.5 366.4,393.2 368.1,392.6 C369.8,392.1 373.7,387.8 375.5,387.8 C377.2,387.8 381.1,392.1 382.8,392.6 C384.5,393.2 388.4,394.8 390.1,392.6 C391.8,390.4 395.7,373.5 397.4,373.5 C399.1,373.5 403.0,394.0 404.7,392.6 C406.5,391.2 410.4,363.6 412.1,361.6 C413.8,359.7 417.7,374.8 419.4,375.9 C421.1,377.0 425.0,378.9 426.7,371.2 C428.4,363.4 432.3,309.2 434.0,309.2 C435.7,309.2 439.6,365.0 441.4,371.2 C443.1,377.3 447.0,359.9 448.7,361.6 C450.4,363.3 455.1,382.7 456.0,385.5 L456.0,395 L24,395 Z" fill="rgba(63,185,80,0.08)"/>
    <path d="M24.0,392.6 C24.9,390.7 29.6,376.5 31.3,375.9 C33.0,375.4 36.9,392.0 38.6,387.8 C40.4,383.7 44.3,341.8 46.0,340.2 C47.7,338.5 51.6,370.2 53.3,373.5 C55.0,376.9 58.9,367.7 60.6,368.8 C62.3,369.9 66.2,390.9 67.9,383.1 C69.6,375.3 73.5,311.2 75.3,302.0 C77.0,292.8 80.9,295.2 82.6,304.4 C84.3,313.6 88.2,373.7 89.9,380.7 C91.6,387.6 95.5,369.0 97.2,364.0 C98.9,359.0 102.8,334.4 104.5,337.8 C106.3,341.1 110.2,386.2 111.9,392.6 C113.6,399.0 117.5,392.6 119.2,392.6 C120.9,392.6 124.8,392.6 126.5,392.6 C128.2,392.6 132.1,392.6 133.8,392.6 C135.5,392.6 139.4,392.6 141.2,392.6 C142.9,392.6 146.8,392.6 148.5,392.6 C150.2,392.6 154.1,399.8 155.8,392.6 C157.5,385.4 161.4,330.6 163.1,330.6 C164.8,330.6 168.7,385.4 170.4,392.6 C172.1,399.8 176.1,394.3 177.8,392.6 C179.5,390.9 183.4,383.9 185.1,378.3 C186.8,372.7 190.7,345.8 192.4,344.9 C194.1,344.1 198.0,366.7 199.7,371.2 C201.4,375.6 205.3,382.2 207.1,383.1 C208.8,383.9 212.7,378.6 214.4,378.3 C216.1,378.0 220.0,380.7 221.7,380.7 C223.4,380.7 227.3,379.1 229.0,378.3 C230.7,377.5 234.6,372.4 236.3,373.5 C238.0,374.7 242.0,389.8 243.7,387.8 C245.4,385.9 249.3,356.8 251.0,356.8 C252.7,356.8 256.6,386.7 258.3,387.8 C260.0,389.0 263.9,366.1 265.6,366.4 C267.3,366.7 271.2,392.2 272.9,390.2 C274.7,388.3 278.6,350.2 280.3,349.7 C282.0,349.1 285.9,381.0 287.6,385.5 C289.3,389.9 293.2,387.6 294.9,387.8 C296.6,388.1 300.5,389.5 302.2,387.8 C303.9,386.2 307.9,373.5 309.6,373.5 C311.3,373.5 315.2,391.5 316.9,387.8 C318.6,384.2 322.5,343.9 324.2,342.5 C325.9,341.1 329.8,370.9 331.5,375.9 C333.2,380.9 337.1,387.1 338.8,385.5 C340.6,383.8 344.5,369.7 346.2,361.6 C347.9,353.5 351.8,312.7 353.5,316.3 C355.2,319.9 359.1,383.7 360.8,392.6 C362.5,401.5 366.4,393.2 368.1,392.6 C369.8,392.1 373.7,387.8 375.5,387.8 C377.2,387.8 381.1,392.1 382.8,392.6 C384.5,393.2 388.4,394.8 390.1,392.6 C391.8,390.4 395.7,373.5 397.4,373.5 C399.1,373.5 403.0,394.0 404.7,392.6 C406.5,391.2 410.4,363.6 412.1,361.6 C413.8,359.7 417.7,374.8 419.4,375.9 C421.1,377.0 425.0,378.9 426.7,371.2 C428.4,363.4 432.3,309.2 434.0,309.2 C435.7,309.2 439.6,365.0 441.4,371.2 C443.1,377.3 447.0,359.9 448.7,361.6 C450.4,363.3 455.1,382.7 456.0,385.5" fill="none" stroke="#3fb950" stroke-width="1.5" stroke-linecap="round" stroke-dasharray="4469.523590213586" stroke-dashoffset="4469.523590213586" filter="url(#glow)">
      <animate attributeName="stroke-dashoffset" from="4469.523590213586" to="0" dur="3.5s" fill="freeze" begin="0.8s"/>
    </path>
    <text x="456" y="409" text-anchor="end" fill="#8b949e" font-size="9" font-family="-apple-system,sans-serif">peak: 39</text>
  
<g opacity="0"><animate attributeName="opacity" from="0" to="1" dur="0.5s" begin="2.00s" fill="freeze"/><rect x="24" y="423" width="85.6" height="20" rx="10" fill="#3fb950" opacity="0.15"/><rect x="24" y="423" width="85.6" height="20" rx="10" fill="none" stroke="#3fb950" stroke-width="1" opacity="0.4"/><text x="66.8" y="436.5" text-anchor="middle" fill="#3fb950" font-size="9" font-weight="600" font-family="-apple-system,BlinkMacSystemFont,'Segoe UI',Helvetica,Arial,sans-serif">5.5k Commits</text></g>
<g opacity="0"><animate attributeName="opacity" from="0" to="1" dur="0.5s" begin="2.15s" fill="freeze"/><rect x="115.6" y="423" width="79.8" height="20" rx="10" fill="#f0883e" opacity="0.15"/><rect x="115.6" y="423" width="79.8" height="20" rx="10" fill="none" stroke="#f0883e" stroke-width="1" opacity="0.4"/><text x="155.5" y="436.5" text-anchor="middle" fill="#f0883e" font-size="9" font-weight="600" font-family="-apple-system,BlinkMacSystemFont,'Segoe UI',Helvetica,Arial,sans-serif">776d Streak</text></g>
<g opacity="0"><animate attributeName="opacity" from="0" to="1" dur="0.5s" begin="2.30s" fill="freeze"/><rect x="201.39999999999998" y="423" width="56.6" height="20" rx="10" fill="#58a6ff" opacity="0.15"/><rect x="201.39999999999998" y="423" width="56.6" height="20" rx="10" fill="none" stroke="#58a6ff" stroke-width="1" opacity="0.4"/><text x="229.7" y="436.5" text-anchor="middle" fill="#58a6ff" font-size="9" font-weight="600" font-family="-apple-system,BlinkMacSystemFont,'Segoe UI',Helvetica,Arial,sans-serif">735 PRs</text></g>
<g opacity="0"><animate attributeName="opacity" from="0" to="1" dur="0.5s" begin="2.45s" fill="freeze"/><rect x="264" y="423" width="45" height="20" rx="10" fill="#bc8cff" opacity="0.15"/><rect x="264" y="423" width="45" height="20" rx="10" fill="none" stroke="#bc8cff" stroke-width="1" opacity="0.4"/><text x="286.5" y="436.5" text-anchor="middle" fill="#bc8cff" font-size="9" font-weight="600" font-family="-apple-system,BlinkMacSystemFont,'Segoe UI',Helvetica,Arial,sans-serif">1k AI</text></g>
<g opacity="0"><animate attributeName="opacity" from="0" to="1" dur="0.5s" begin="2.60s" fill="freeze"/><rect x="315" y="423" width="62.4" height="20" rx="10" fill="#79c0ff" opacity="0.15"/><rect x="315" y="423" width="62.4" height="20" rx="10" fill="none" stroke="#79c0ff" stroke-width="1" opacity="0.4"/><text x="346.2" y="436.5" text-anchor="middle" fill="#79c0ff" font-size="9" font-weight="600" font-family="-apple-system,BlinkMacSystemFont,'Segoe UI',Helvetica,Arial,sans-serif">79 Repos</text></g>

</svg>