<svg xmlns="http://www.w3.org/2000/svg" width="480" height="459" viewBox="0 0 480 459">
<defs>
<filter id="glow"><feGaussianBlur stdDeviation="2" result="blur"/><feMerge><feMergeNode in="blur"/><feMergeNode in="SourceGraphic"/></feMerge></filter>
</defs>
<style>text{font-family:-apple-system,BlinkMacSystemFont,'Segoe UI',Helvetica,Arial,sans-serif}</style>


    <text x="24" y="38" fill="#0969da" font-size="16" font-weight="700" font-family="-apple-system,BlinkMacSystemFont,'Segoe UI',Helvetica,Arial,sans-serif">soranjiro</text>
    <text x="24" y="58" fill="#656d76" font-size="11" font-family="-apple-system,BlinkMacSystemFont,'Segoe UI',Helvetica,Arial,sans-serif">Joined GitHub 3 years ago</text>
    <text x="24" y="74" fill="#656d76" font-size="11" font-family="-apple-system,BlinkMacSystemFont,'Segoe UI',Helvetica,Arial,sans-serif">Followed by 9 users</text>
    <rect x="210" y="22" width="14" height="14" rx="2" fill="#40c463"><animate attributeName="opacity" from="0" to="1" dur="0.3s" begin="0.00s" fill="freeze"/></rect>
    <rect x="228" y="22" width="14" height="14" rx="2" fill="#9be9a8"><animate attributeName="opacity" from="0" to="1" dur="0.3s" begin="0.08s" fill="freeze"/></rect>
    <rect x="246" y="22" width="14" height="14" rx="2" fill="#30a14e"><animate attributeName="opacity" from="0" to="1" dur="0.3s" begin="0.16s" fill="freeze"/></rect>
    <rect x="264" y="22" width="14" height="14" rx="2" fill="#30a14e"><animate attributeName="opacity" from="0" to="1" dur="0.3s" begin="0.24s" fill="freeze"/></rect>
    <rect x="282" y="22" width="14" height="14" rx="2" fill="#40c463"><animate attributeName="opacity" from="0" to="1" dur="0.3s" begin="0.32s" fill="freeze"/></rect>
    <rect x="300" y="22" width="14" height="14" rx="2" fill="#40c463"><animate attributeName="opacity" from="0" to="1" dur="0.3s" begin="0.40s" fill="freeze"/></rect>
    <rect x="318" y="22" width="14" height="14" rx="2" fill="#30a14e"><animate attributeName="opacity" from="0" to="1" dur="0.3s" begin="0.48s" fill="freeze"/></rect>
    <rect x="336" y="22" width="14" height="14" rx="2" fill="#216e39"><animate attributeName="opacity" from="0" to="1" dur="0.3s" begin="0.56s" fill="freeze"/></rect>
    <rect x="354" y="22" width="14" height="14" rx="2" fill="#30a14e"><animate attributeName="opacity" from="0" to="1" dur="0.3s" begin="0.64s" fill="freeze"/></rect>
    <rect x="372" y="22" width="14" height="14" rx="2" fill="#9be9a8"><animate attributeName="opacity" from="0" to="1" dur="0.3s" begin="0.72s" fill="freeze"/></rect>
    <rect x="390" y="22" width="14" height="14" rx="2" fill="#30a14e"><animate attributeName="opacity" from="0" to="1" dur="0.3s" begin="0.80s" fill="freeze"/></rect>
    <rect x="408" y="22" width="14" height="14" rx="2" fill="#9be9a8"><animate attributeName="opacity" from="0" to="1" dur="0.3s" begin="0.88s" fill="freeze"/></rect>
    <rect x="426" y="22" width="14" height="14" rx="2" fill="#9be9a8"><animate attributeName="opacity" from="0" to="1" dur="0.3s" begin="0.96s" fill="freeze"/></rect>
    <rect x="444" y="22" width="14" height="14" rx="2" fill="#216e39"><animate attributeName="opacity" from="0" to="1" dur="0.3s" begin="1.04s" fill="freeze"/></rect>
    <rect x="462" y="22" width="14" height="14" rx="2" fill="#9be9a8"><animate attributeName="opacity" from="0" to="1" dur="0.3s" begin="1.12s" fill="freeze"/></rect>
    <text x="210" y="54" fill="#656d76" font-size="10" font-family="-apple-system,BlinkMacSystemFont,'Segoe UI',Helvetica,Arial,sans-serif">Contributed to 17 repositories</text>

    <line x1="24" y1="92" x2="456" y2="92" stroke="#d0d7de" stroke-width="0.5"/>

    <path d="M10.5 7.75a2.5 2.5 0 11-5 0 2.5 2.5 0 015 0zm1.43.75a4.002 4.002 0 01-7.86 0H.75a.75.75 0 110-1.5h3.32a4.001 4.001 0 017.86 0h3.32a.75.75 0 110 1.5h-3.32z" fill="#1a7f37" transform="translate(24,100) scale(0.8750)"/><text x="44" y="112" fill="#1a7f37" font-size="12" font-weight="600" font-family="-apple-system,BlinkMacSystemFont,'Segoe UI',Helvetica,Arial,sans-serif">Activity</text>
    <g opacity="0"><animate attributeName="opacity" from="0" to="1" dur="0.5s" begin="0.40s" fill="freeze"/><path d="M10.5 7.75a2.5 2.5 0 11-5 0 2.5 2.5 0 015 0zm1.43.75a4.002 4.002 0 01-7.86 0H.75a.75.75 0 110-1.5h3.32a4.001 4.001 0 017.86 0h3.32a.75.75 0 110 1.5h-3.32z" fill="#656d76" transform="translate(24,122) scale(0.7500)"/><text x="40" y="132" fill="#656d76" font-size="11" font-family="-apple-system,BlinkMacSystemFont,'Segoe UI',Helvetica,Arial,sans-serif">4,874 Commits</text></g>
    <g opacity="0"><animate attributeName="opacity" from="0" to="1" dur="0.5s" begin="0.60s" fill="freeze"/><path d="M7.177 3.073L9.573.677A.25.25 0 0110 .854v4.792a.25.25 0 01-.427.177L7.177 3.427a.25.25 0 010-.354zM3.75 2.5a.75.75 0 100 1.5.75.75 0 000-1.5zm-2.25.75a2.25 2.25 0 113 2.122v5.256a2.251 2.251 0 11-1.5 0V5.372A2.25 2.25 0 011.5 3.25zM11 2.5h-1V4h1a1 1 0 011 1v5.628a2.251 2.251 0 101.5 0V5A2.5 2.5 0 0011 2.5zm1 10.25a.75.75 0 111.5 0 .75.75 0 01-1.5 0zM3.75 12a.75.75 0 100 1.5.75.75 0 000-1.5z" fill="#656d76" transform="translate(24,140) scale(0.7500)"/><text x="40" y="150" fill="#656d76" font-size="11" font-family="-apple-system,BlinkMacSystemFont,'Segoe UI',Helvetica,Arial,sans-serif">618 Pull requests opened</text></g>
    <g opacity="0"><animate attributeName="opacity" from="0" to="1" dur="0.5s" begin="0.80s" fill="freeze"/><path d="M2.5 1.75a.25.25 0 01.25-.25h8.5a.25.25 0 01.25.25v7.736a.75.75 0 101.5 0V1.75A1.75 1.75 0 0011.25 0h-8.5A1.75 1.75 0 001 1.75v11.5c0 .966.784 1.75 1.75 1.75h3.17a.75.75 0 000-1.5H2.75a.25.25 0 01-.25-.25V1.75zM4.75 4a.75.75 0 000 1.5h4.5a.75.75 0 000-1.5h-4.5zM4 7.75A.75.75 0 014.75 7h2a.75.75 0 010 1.5h-2A.75.75 0 014 7.75zm11.774 3.537a.75.75 0 00-1.048-1.074L10.7 14.145 9.281 12.72a.75.75 0 00-1.062 1.058l1.943 1.95a.75.75 0 001.055.008l4.557-4.45z" fill="#656d76" transform="translate(24,158) scale(0.7500)"/><text x="40" y="168" fill="#656d76" font-size="11" font-family="-apple-system,BlinkMacSystemFont,'Segoe UI',Helvetica,Arial,sans-serif">179 Pull requests reviewed</text></g>
    <g opacity="0"><animate attributeName="opacity" from="0" to="1" dur="0.5s" begin="1.00s" fill="freeze"/><path d="M8 9.5a1.5 1.5 0 100-3 1.5 1.5 0 000 3zM8 0a8 8 0 100 16A8 8 0 008 0zM1.5 8a6.5 6.5 0 1113 0 6.5 6.5 0 01-13 0z" fill="#656d76" transform="translate(24,176) scale(0.7500)"/><text x="40" y="186" fill="#656d76" font-size="11" font-family="-apple-system,BlinkMacSystemFont,'Segoe UI',Helvetica,Arial,sans-serif">199 Issues opened</text></g>
    <g opacity="0"><animate attributeName="opacity" from="0" to="1" dur="0.5s" begin="1.20s" fill="freeze"/><path d="M1 2.5A2.5 2.5 0 013.5 0h8.75a.75.75 0 01.75.75v3.5a.75.75 0 01-1.5 0V1.5h-8a1 1 0 00-1 1v6.708A2.492 2.492 0 013.5 9h3.25a.75.75 0 010 1.5H3.5a1 1 0 100 2h5.75a.75.75 0 010 1.5H3.5A2.5 2.5 0 011 11.5v-9zm13.23 7.79a.75.75 0 001.06-1.06l-2.505-2.505a.75.75 0 00-1.06 0L9.22 9.229a.75.75 0 001.06 1.061l1.225-1.224v6.184a.75.75 0 001.5 0V9.066l1.224 1.224z" fill="#656d76" transform="translate(24,194) scale(0.7500)"/><text x="40" y="204" fill="#656d76" font-size="11" font-family="-apple-system,BlinkMacSystemFont,'Segoe UI',Helvetica,Arial,sans-serif">386 Comments</text></g>

    <path d="M1.75 16A1.75 1.75 0 010 14.25V1.75C0 .784.784 0 1.75 0h8.5C11.216 0 12 .784 12 1.75v12.5c0 .085-.006.168-.018.25h2.268a.25.25 0 00.25-.25V8.285a.25.25 0 00-.111-.208l-1.055-.703a.75.75 0 11.832-1.248l1.055.703c.487.325.779.871.779 1.456v5.965A1.75 1.75 0 0114.25 16h-3.5a.75.75 0 01-.197-.026c-.099.017-.2.026-.303.026h-3a.75.75 0 01-.75-.75V14h-1v1.25a.75.75 0 01-.75.75h-3zM3 3.75A.75.75 0 013.75 3h.5a.75.75 0 010 1.5h-.5A.75.75 0 013 3.75zM3.75 6a.75.75 0 000 1.5h.5a.75.75 0 000-1.5h-.5zM3 9.75A.75.75 0 013.75 9h.5a.75.75 0 010 1.5h-.5A.75.75 0 013 9.75zM7.75 9a.75.75 0 000 1.5h.5a.75.75 0 000-1.5h-.5zM7 6.75A.75.75 0 017.75 6h.5a.75.75 0 010 1.5h-.5A.75.75 0 017 6.75zM7.75 3a.75.75 0 000 1.5h.5a.75.75 0 000-1.5h-.5z" fill="#1a7f37" transform="translate(260,100) scale(0.8750)"/><text x="280" y="112" fill="#1a7f37" font-size="12" font-weight="600" font-family="-apple-system,BlinkMacSystemFont,'Segoe UI',Helvetica,Arial,sans-serif">Community</text>
    <g opacity="0"><animate attributeName="opacity" from="0" to="1" dur="0.5s" begin="0.50s" fill="freeze"/><path d="M1.75 16A1.75 1.75 0 010 14.25V1.75C0 .784.784 0 1.75 0h8.5C11.216 0 12 .784 12 1.75v12.5c0 .085-.006.168-.018.25h2.268a.25.25 0 00.25-.25V8.285a.25.25 0 00-.111-.208l-1.055-.703a.75.75 0 11.832-1.248l1.055.703c.487.325.779.871.779 1.456v5.965A1.75 1.75 0 0114.25 16h-3.5a.75.75 0 01-.197-.026c-.099.017-.2.026-.303.026h-3a.75.75 0 01-.75-.75V14h-1v1.25a.75.75 0 01-.75.75h-3zM3 3.75A.75.75 0 013.75 3h.5a.75.75 0 010 1.5h-.5A.75.75 0 013 3.75zM3.75 6a.75.75 0 000 1.5h.5a.75.75 0 000-1.5h-.5zM3 9.75A.75.75 0 013.75 9h.5a.75.75 0 010 1.5h-.5A.75.75 0 013 9.75zM7.75 9a.75.75 0 000 1.5h.5a.75.75 0 000-1.5h-.5zM7 6.75A.75.75 0 017.75 6h.5a.75.75 0 010 1.5h-.5A.75.75 0 017 6.75zM7.75 3a.75.75 0 000 1.5h.5a.75.75 0 000-1.5h-.5z" fill="#656d76" transform="translate(260,122) scale(0.7500)"/><text x="276" y="132" fill="#656d76" font-size="11" font-family="-apple-system,BlinkMacSystemFont,'Segoe UI',Helvetica,Arial,sans-serif">Member of 4 organizations</text></g>
    <g opacity="0"><animate attributeName="opacity" from="0" to="1" dur="0.5s" begin="0.70s" fill="freeze"/><path d="M8 .25a.75.75 0 01.673.418l1.882 3.815 4.21.612a.75.75 0 01.416 1.279l-3.046 2.97.719 4.192a.75.75 0 01-1.088.791L8 12.347l-3.766 1.98a.75.75 0 01-1.088-.79l.72-4.194L.818 6.374a.75.75 0 01.416-1.28l4.21-.611L7.327.668A.75.75 0 018 .25z" fill="#656d76" transform="translate(260,140) scale(0.7500)"/><text x="276" y="150" fill="#656d76" font-size="11" font-family="-apple-system,BlinkMacSystemFont,'Segoe UI',Helvetica,Arial,sans-serif">Starred 10 repositories</text></g>
    <g opacity="0"><animate attributeName="opacity" from="0" to="1" dur="0.5s" begin="0.90s" fill="freeze"/><path d="M7.53 1.282a.5.5 0 01.94 0l1.478 4.007a.5.5 0 00.312.312l4.007 1.478a.5.5 0 010 .94l-4.007 1.478a.5.5 0 00-.312.312L8.47 14.816a.5.5 0 01-.94 0L6.052 10.81a.5.5 0 00-.312-.312L1.733 9.019a.5.5 0 010-.94L5.74 6.601a.5.5 0 00.312-.312z" fill="#656d76" transform="translate(260,158) scale(0.7500)"/><text x="276" y="168" fill="#656d76" font-size="11" font-family="-apple-system,BlinkMacSystemFont,'Segoe UI',Helvetica,Arial,sans-serif">1k Copilot requests</text></g>
    <g opacity="0"><animate attributeName="opacity" from="0" to="1" dur="0.5s" begin="1.1s" fill="freeze"/>
      <path d="M1.5 8a6.5 6.5 0 1113 0 6.5 6.5 0 01-13 0zM8 0a8 8 0 100 16A8 8 0 008 0zm.5 4.75a.75.75 0 00-1.5 0v3.5a.75.75 0 00.471.696l2.5 1a.75.75 0 00.557-1.392L8.5 7.742V4.75z" fill="#656d76" transform="translate(260,176) scale(0.7500)"/><text x="276" y="186" fill="#656d76" font-size="11" font-family="-apple-system,BlinkMacSystemFont,'Segoe UI',Helvetica,Arial,sans-serif">24-day streak</text>
      <circle cx="361" cy="182" r="3" fill="#1a7f37"><animate attributeName="opacity" values="1;0.3;1" dur="2s" repeatCount="indefinite"/></circle>
    </g>
    <g opacity="0"><animate attributeName="opacity" from="0" to="1" dur="0.5s" begin="1.30s" fill="freeze"/><path d="M8 .25a.75.75 0 01.673.418l1.882 3.815 4.21.612a.75.75 0 01.416 1.279l-3.046 2.97.719 4.192a.75.75 0 01-1.088.791L8 12.347l-3.766 1.98a.75.75 0 01-1.088-.79l.72-4.194L.818 6.374a.75.75 0 01.416-1.28l4.21-.611L7.327.668A.75.75 0 018 .25z" fill="#656d76" transform="translate(260,194) scale(0.7500)"/><text x="276" y="204" fill="#656d76" font-size="11" font-family="-apple-system,BlinkMacSystemFont,'Segoe UI',Helvetica,Arial,sans-serif">Best: 119/day</text></g>

    <line x1="24" y1="218" x2="456" y2="218" stroke="#d0d7de" stroke-width="0.5"/>

    <path d="M2 2.5A2.5 2.5 0 014.5 0h8.75a.75.75 0 01.75.75v12.5a.75.75 0 01-.75.75h-2.5a.75.75 0 010-1.5h1.75v-2h-8a1 1 0 00-.714 1.7.75.75 0 01-1.072 1.05A2.495 2.495 0 012 11.5v-9zm10.5-1h-8a1 1 0 00-1 1v6.708A2.486 2.486 0 014.5 9h8V1.5zm-3 2a.75.75 0 01.75.75v2a.75.75 0 01-1.5 0v-2a.75.75 0 01.75-.75z" fill="#1a7f37" transform="translate(24,228) scale(0.8750)"/><text x="44" y="240" fill="#1a7f37" font-size="12" font-weight="600" font-family="-apple-system,BlinkMacSystemFont,'Segoe UI',Helvetica,Arial,sans-serif">62 Repositories</text>
    <text x="24" y="260" fill="#656d76" font-size="11" font-family="-apple-system,BlinkMacSystemFont,'Segoe UI',Helvetica,Arial,sans-serif">Prefers MIT license</text>
    <text x="24" y="278" fill="#656d76" font-size="11" font-family="-apple-system,BlinkMacSystemFont,'Segoe UI',Helvetica,Arial,sans-serif">43 Releases</text>

    <text x="260" y="260" fill="#656d76" font-size="11" font-family="-apple-system,BlinkMacSystemFont,'Segoe UI',Helvetica,Arial,sans-serif">10 Stargazers</text>
    <text x="260" y="278" fill="#656d76" font-size="11" font-family="-apple-system,BlinkMacSystemFont,'Segoe UI',Helvetica,Arial,sans-serif">5 Forkers</text>
  

    <text x="24" y="296" fill="#656d76" font-size="9" font-weight="600" letter-spacing="1" font-family="-apple-system,sans-serif">LAST 60 DAYS</text>
    <path d="M24.0,345.1 C24.9,350.6 29.6,392.0 31.3,392.3 C33.0,392.6 36.9,348.0 38.6,347.8 C40.4,347.7 44.3,387.2 46.0,391.0 C47.7,394.7 51.6,384.6 53.3,380.2 C55.0,375.8 58.9,356.5 60.6,353.2 C62.3,349.9 66.2,351.4 67.9,351.9 C69.6,352.3 73.5,353.2 75.3,357.3 C77.0,361.3 80.9,385.3 82.6,386.9 C84.3,388.5 88.2,373.1 89.9,370.7 C91.6,368.4 95.5,374.7 97.2,366.7 C98.9,358.7 102.8,299.0 104.5,302.0 C106.3,305.0 110.2,381.9 111.9,392.3 C113.6,402.7 117.5,391.0 119.2,391.0 C120.9,391.0 124.8,392.1 126.5,392.3 C128.2,392.5 132.1,395.0 133.8,392.3 C135.5,389.6 139.4,370.6 141.2,369.4 C142.9,368.1 146.8,378.8 148.5,381.5 C150.2,384.2 154.1,391.5 155.8,392.3 C157.5,393.1 161.4,388.3 163.1,388.3 C164.8,388.3 168.7,391.8 170.4,392.3 C172.1,392.8 176.1,392.3 177.8,392.3 C179.5,392.3 183.4,392.3 185.1,392.3 C186.8,392.3 190.7,392.3 192.4,392.3 C194.1,392.3 198.0,392.5 199.7,392.3 C201.4,392.1 205.3,400.5 207.1,391.0 C208.8,381.4 212.7,310.4 214.4,310.1 C216.1,309.8 220.0,378.7 221.7,388.3 C223.4,397.9 227.3,391.7 229.0,392.3 C230.7,392.9 234.6,395.4 236.3,393.7 C238.0,391.9 242.0,378.0 243.7,377.5 C245.4,377.0 249.3,391.5 251.0,389.6 C252.7,387.7 256.6,360.8 258.3,361.3 C260.0,361.8 263.9,389.7 265.6,393.7 C267.3,397.6 271.2,395.0 272.9,395.0 C274.7,395.0 278.6,393.8 280.3,393.7 C282.0,393.5 285.9,393.7 287.6,393.7 C289.3,393.7 293.2,393.7 294.9,393.7 C296.6,393.7 300.5,393.7 302.2,393.7 C303.9,393.7 307.9,393.7 309.6,393.7 C311.3,393.7 315.2,393.7 316.9,393.7 C318.6,393.7 322.5,394.8 324.2,393.7 C325.9,392.6 329.8,384.2 331.5,384.2 C333.2,384.2 337.1,393.8 338.8,393.7 C340.6,393.5 344.5,383.0 346.2,382.9 C347.9,382.7 351.8,391.2 353.5,392.3 C355.2,393.4 359.1,392.8 360.8,392.3 C362.5,391.8 366.4,391.7 368.1,388.3 C369.8,384.8 373.7,363.0 375.5,362.7 C377.2,362.3 381.1,383.2 382.8,385.6 C384.5,387.9 388.4,385.2 390.1,382.9 C391.8,380.5 395.7,373.5 397.4,365.3 C399.1,357.2 403.0,309.5 404.7,312.8 C406.5,316.1 410.4,384.2 412.1,393.7 C413.8,403.1 417.7,393.8 419.4,393.7 C421.1,393.5 425.0,395.1 426.7,392.3 C428.4,389.5 432.3,369.2 434.0,369.4 C435.7,369.5 439.6,390.8 441.4,393.7 C443.1,396.5 447.0,393.5 448.7,393.7 C450.4,393.8 455.1,394.8 456.0,395.0 L456.0,395 L24,395 Z" fill="rgba(26,127,55,0.06)"/>
    <path d="M24.0,345.1 C24.9,350.6 29.6,392.0 31.3,392.3 C33.0,392.6 36.9,348.0 38.6,347.8 C40.4,347.7 44.3,387.2 46.0,391.0 C47.7,394.7 51.6,384.6 53.3,380.2 C55.0,375.8 58.9,356.5 60.6,353.2 C62.3,349.9 66.2,351.4 67.9,351.9 C69.6,352.3 73.5,353.2 75.3,357.3 C77.0,361.3 80.9,385.3 82.6,386.9 C84.3,388.5 88.2,373.1 89.9,370.7 C91.6,368.4 95.5,374.7 97.2,366.7 C98.9,358.7 102.8,299.0 104.5,302.0 C106.3,305.0 110.2,381.9 111.9,392.3 C113.6,402.7 117.5,391.0 119.2,391.0 C120.9,391.0 124.8,392.1 126.5,392.3 C128.2,392.5 132.1,395.0 133.8,392.3 C135.5,389.6 139.4,370.6 141.2,369.4 C142.9,368.1 146.8,378.8 148.5,381.5 C150.2,384.2 154.1,391.5 155.8,392.3 C157.5,393.1 161.4,388.3 163.1,388.3 C164.8,388.3 168.7,391.8 170.4,392.3 C172.1,392.8 176.1,392.3 177.8,392.3 C179.5,392.3 183.4,392.3 185.1,392.3 C186.8,392.3 190.7,392.3 192.4,392.3 C194.1,392.3 198.0,392.5 199.7,392.3 C201.4,392.1 205.3,400.5 207.1,391.0 C208.8,381.4 212.7,310.4 214.4,310.1 C216.1,309.8 220.0,378.7 221.7,388.3 C223.4,397.9 227.3,391.7 229.0,392.3 C230.7,392.9 234.6,395.4 236.3,393.7 C238.0,391.9 242.0,378.0 243.7,377.5 C245.4,377.0 249.3,391.5 251.0,389.6 C252.7,387.7 256.6,360.8 258.3,361.3 C260.0,361.8 263.9,389.7 265.6,393.7 C267.3,397.6 271.2,395.0 272.9,395.0 C274.7,395.0 278.6,393.8 280.3,393.7 C282.0,393.5 285.9,393.7 287.6,393.7 C289.3,393.7 293.2,393.7 294.9,393.7 C296.6,393.7 300.5,393.7 302.2,393.7 C303.9,393.7 307.9,393.7 309.6,393.7 C311.3,393.7 315.2,393.7 316.9,393.7 C318.6,393.7 322.5,394.8 324.2,393.7 C325.9,392.6 329.8,384.2 331.5,384.2 C333.2,384.2 337.1,393.8 338.8,393.7 C340.6,393.5 344.5,383.0 346.2,382.9 C347.9,382.7 351.8,391.2 353.5,392.3 C355.2,393.4 359.1,392.8 360.8,392.3 C362.5,391.8 366.4,391.7 368.1,388.3 C369.8,384.8 373.7,363.0 375.5,362.7 C377.2,362.3 381.1,383.2 382.8,385.6 C384.5,387.9 388.4,385.2 390.1,382.9 C391.8,380.5 395.7,373.5 397.4,365.3 C399.1,357.2 403.0,309.5 404.7,312.8 C406.5,316.1 410.4,384.2 412.1,393.7 C413.8,403.1 417.7,393.8 419.4,393.7 C421.1,393.5 425.0,395.1 426.7,392.3 C428.4,389.5 432.3,369.2 434.0,369.4 C435.7,369.5 439.6,390.8 441.4,393.7 C443.1,396.5 447.0,393.5 448.7,393.7 C450.4,393.8 455.1,394.8 456.0,395.0" fill="none" stroke="#1a7f37" stroke-width="1.5" stroke-linecap="round" stroke-dasharray="3651.829825448661" stroke-dashoffset="3651.829825448661" filter="url(#glow)">
      <animate attributeName="stroke-dashoffset" from="3651.829825448661" to="0" dur="3.5s" fill="freeze" begin="0.8s"/>
    </path>
    <text x="456" y="409" text-anchor="end" fill="#656d76" font-size="9" font-family="-apple-system,sans-serif">peak: 69</text>
  
<g opacity="0"><animate attributeName="opacity" from="0" to="1" dur="0.5s" begin="2.00s" fill="freeze"/><rect x="24" y="423" width="85.6" height="20" rx="10" fill="#1a7f37" opacity="0.15"/><rect x="24" y="423" width="85.6" height="20" rx="10" fill="none" stroke="#1a7f37" stroke-width="1" opacity="0.4"/><text x="66.8" y="436.5" text-anchor="middle" fill="#1a7f37" font-size="9" font-weight="600" font-family="-apple-system,BlinkMacSystemFont,'Segoe UI',Helvetica,Arial,sans-serif">4.9k Commits</text></g>
<g opacity="0"><animate attributeName="opacity" from="0" to="1" dur="0.5s" begin="2.15s" fill="freeze"/><rect x="115.6" y="423" width="56.6" height="20" rx="10" fill="#0969da" opacity="0.15"/><rect x="115.6" y="423" width="56.6" height="20" rx="10" fill="none" stroke="#0969da" stroke-width="1" opacity="0.4"/><text x="143.9" y="436.5" text-anchor="middle" fill="#0969da" font-size="9" font-weight="600" font-family="-apple-system,BlinkMacSystemFont,'Segoe UI',Helvetica,Arial,sans-serif">618 PRs</text></g>
<g opacity="0"><animate attributeName="opacity" from="0" to="1" dur="0.5s" begin="2.30s" fill="freeze"/><rect x="178.2" y="423" width="45" height="20" rx="10" fill="#8250df" opacity="0.15"/><rect x="178.2" y="423" width="45" height="20" rx="10" fill="none" stroke="#8250df" stroke-width="1" opacity="0.4"/><text x="200.7" y="436.5" text-anchor="middle" fill="#8250df" font-size="9" font-weight="600" font-family="-apple-system,BlinkMacSystemFont,'Segoe UI',Helvetica,Arial,sans-serif">1k AI</text></g>
<g opacity="0"><animate attributeName="opacity" from="0" to="1" dur="0.5s" begin="2.45s" fill="freeze"/><rect x="229.2" y="423" width="62.4" height="20" rx="10" fill="#0550ae" opacity="0.15"/><rect x="229.2" y="423" width="62.4" height="20" rx="10" fill="none" stroke="#0550ae" stroke-width="1" opacity="0.4"/><text x="260.4" y="436.5" text-anchor="middle" fill="#0550ae" font-size="9" font-weight="600" font-family="-apple-system,BlinkMacSystemFont,'Segoe UI',Helvetica,Arial,sans-serif">62 Repos</text></g>

</svg>